<?xml version="1.0" encoding="UTF-8" standalone="no"?>
<svg
   version="1.1"
   width="512"
   height="382.56415"
   id="svg1722"
   viewBox="0 0 512 382.56414"
   sodipodi:docname="Armani_Hotel_Dubai_Logo.svg"
   inkscape:version="1.1.1 (3bf5ae0d25, 2021-09-20)"
   xmlns:inkscape="http://www.inkscape.org/namespaces/inkscape"
   xmlns:sodipodi="http://sodipodi.sourceforge.net/DTD/sodipodi-0.dtd"
   xmlns="http://www.w3.org/2000/svg"
   xmlns:svg="http://www.w3.org/2000/svg">
  <defs
     id="defs1726" />
  <sodipodi:namedview
     id="namedview1724"
     pagecolor="#ffffff"
     bordercolor="#666666"
     borderopacity="1.0"
     inkscape:pageshadow="2"
     inkscape:pageopacity="0.0"
     inkscape:pagecheckerboard="0"
     showgrid="false"
     inkscape:zoom="0.89029849"
     inkscape:cx="88.172676"
     inkscape:cy="1.6848282"
     inkscape:window-width="1366"
     inkscape:window-height="715"
     inkscape:window-x="-8"
     inkscape:window-y="-8"
     inkscape:window-maximized="1"
     inkscape:current-layer="svg1722"
     showguides="true"
     inkscape:guide-bbox="true">
    <sodipodi:guide
       position="351.82787,232.64846"
       orientation="0,-1"
       id="guide822" />
  </sodipodi:namedview>
  <path
     d="m 315.21598,255.99562 17.4786,-50.02472 16.57453,50.02472 z M 129.58233,233.99681 h -9.34213 v -47.91517 h 7.83504 c 13.56102,0 22.60143,8.7392 22.60143,25.01241 3e-4,9.04041 -6.93077,22.90276 -21.09434,22.90276 z M 25.012303,255.99562 42.490997,205.9709 59.366735,255.99562 Z M 512,186.08164 v -3.91755 h -57.85995 v 3.91755 h 8.7391 v 78.9548 l -53.94228,-82.87235 h -24.71076 v 3.91755 h 8.73918 V 291.85676 H 377.2949 L 338.42025,177.04093 298.03891,291.85676 H 282.66987 V 186.08164 h 9.34182 v -3.91755 h -23.80691 l -30.13547,86.78971 -31.34062,-86.78971 h -22.90275 v 3.91755 h 8.73919 v 105.77512 h -17.77992 c -4.82152,0 -9.64335,-4.52021 -9.64335,-12.05423 v -16.87575 c 0,-12.65684 -4.21898,-23.50559 -16.87574,-27.12194 11.45137,-3.31482 18.98537,-14.16357 18.98537,-25.61496 0,-16.2732 -12.35553,-28.62875 -35.86112,-28.62875 l -34.956988,3.1e-4 v 3.91767 l 8.739088,-3.1e-4 V 291.25391 H 87.091336 L 48.518007,177.04093 8.1365556,292.15808 H 0 v 3.91766 h 22.601742 v -3.91766 h -9.944878 l 11.451278,-32.24479 h 36.464091 l 10.848724,32.24479 H 57.558733 v 3.91766 h 76.543807 v -3.91766 H 120.2402 v -53.94237 h 9.34213 c 13.86226,0 20.49211,5.72569 20.49211,18.68387 v 9.64326 c 0,23.20437 15.36894,29.5326 23.8069,29.5326 l 32.54604,3e-4 v -3.91766 h -9.64337 v -93.72089 l 36.765,98.84405 34.65577,-101.85756 v 96.7347 l -8.73919,-3e-4 v 3.91766 h 53.0382 v -3.91766 h -9.94466 l 10.84882,-32.24479 h 36.76504 l 10.54748,32.24479 h -13.86232 v 3.91766 h 58.76389 v -3.91766 h -8.73918 V 192.10865 l 70.21557,107.88476 -2.9e-4,-113.91177 h 20.79342 v 105.77512 h -8.73919 v 3.91766 h 32.54642 v -3.91766 h -8.73951 V 186.08164 Z M 308.28482,371.11277 c 0,4.82152 -2.71218,8.13664 -6.93108,8.13664 -3.61645,0 -5.42446,-2.10964 -5.42446,-7.23251 v -21.99878 h -3.61606 v 23.80693 c 0,6.0269 3.31482,8.43788 8.13657,8.43788 3.3148,0 6.02701,-1.5068 7.83532,-5.12316 h 0.30102 v 4.5202 l 3.31503,3.1e-4 v -31.64216 h -3.61634 z m 62.38024,-25.91647 h 3.61635 v -6.02703 h -3.61635 z m -100.35073,33.14896 h -6.32853 v -35.86115 h 6.32853 c 8.13667,0 11.75269,4.21889 11.75269,18.08123 0,13.86224 -3.61602,17.77992 -11.75269,17.77992 z m 0,-39.17599 h -10.24619 v 42.49101 h 10.24619 c 12.35554,0 15.67036,-7.23239 15.67036,-21.09474 0,-13.86223 -3.0135,-21.39627 -15.67036,-21.39627 z m 100.35073,42.49101 h 3.61635 v -31.64216 h -3.61635 z m -41.88815,-2.41087 c -3.91758,0 -7.23239,-1.808 -7.23239,-13.56102 0,-11.7526 3.31481,-13.25969 7.23239,-13.25969 3.61646,0 6.62986,1.80802 6.62986,13.25969 0.30132,11.75269 -3.0134,13.56102 -6.62986,13.56102 z m 0.60264,-29.83421 c -3.91767,0 -6.32852,2.10962 -6.93117,5.42446 h -0.30122 v -15.67039 h -3.61614 v 42.49101 h 3.31482 v -5.12303 h 0.30132 c 0.60254,3.61634 3.91756,6.0269 7.53372,6.0269 7.23238,0 10.2459,-5.72568 10.2459,-16.57444 -0.30102,-11.15005 -3.61605,-16.57451 -10.54723,-16.57451 z m 29.83412,21.09473 c 0,5.72567 -2.71216,9.0407 -7.23238,9.0407 -3.31482,0 -4.82153,-2.71216 -4.82153,-6.32853 0,-3.61634 1.80802,-5.72569 5.42436,-6.62985 l 2.7122,-0.90416 c 1.50681,-0.30122 3.61635,-0.90417 3.91765,-2.10956 z m 3.91768,5.72599 v -18.68379 c 0,-5.12314 -2.41088,-8.43787 -9.34204,-8.43787 -6.32853,0 -9.64337,3.61635 -9.64337,9.94457 l 3.61636,-2.9e-4 c 0,-4.5202 1.80802,-6.93108 6.02701,-6.93108 3.31484,0 5.42436,1.20539 5.42436,5.42437 0,3.61637 -0.30121,4.2189 -2.71216,4.82153 l -6.62986,1.80802 c -4.52021,1.20549 -6.32853,4.52021 -6.32853,8.73921 0,5.42436 2.41084,9.04072 8.13656,9.04072 3.61633,0 6.62984,-1.2055 8.13665,-5.42438 v 1.20538 c 0,3.31482 1.80802,3.91766 4.5202,3.91766 0.30132,0 1.20548,0 1.80801,-0.30121 v -2.71228 h -1.20517 c -1.20548,0.30161 -1.80802,-0.60255 -1.80802,-2.41056 z M 159.71749,357.25051 h -16.2729 v -18.08124 h -3.9177 v 42.49101 h 3.9177 v -21.09474 l 16.2729,-2e-4 v 21.09463 l 3.91766,3.1e-4 v -42.49101 h -3.91766 z m 75.63985,24.40977 h 3.61616 v -42.49101 h -3.61616 z m -34.95698,-40.38166 h -3.61635 v 8.7395 h -4.21888 v 3.01352 h 4.21888 v 23.50561 c 0,4.21888 2.10966,5.42435 6.62986,5.42435 1.50681,0 2.10966,0 2.41097,-0.30132 v -3.01351 c -0.60266,0.30132 -1.5068,0.30132 -2.10967,0.30132 -2.41085,0 -3.61633,-0.90416 -3.61633,-3.31482 v -22.60163 h 5.72569 v -3.01352 h -5.42417 z m -21.09494,37.97079 c -3.91767,0 -6.93118,-3.31482 -6.93118,-13.56102 0,-9.94457 3.31482,-13.25969 6.93118,-13.25969 3.91768,0 7.2324,3.31481 7.2324,13.25969 3e-4,10.2459 -3.31472,13.56102 -7.2324,13.56102 z m 0,-29.83421 c -6.62985,0 -10.54752,5.72568 -10.54752,16.57451 0,11.15006 3.91767,16.57444 10.54752,16.57444 7.2324,0 10.84875,-5.42438 10.84875,-16.57444 0.30131,-11.15005 -3.61605,-16.57451 -10.84875,-16.57451 z m 33.14896,13.56101 c 0,-7.83533 2.41087,-10.54751 6.62984,-10.54751 4.2189,0 6.62986,2.71218 6.62986,10.54751 z m 6.93106,-13.56101 c -7.23238,0 -10.84874,5.72568 -10.84874,16.57451 0,12.05422 3.91768,16.57444 10.54752,16.57444 6.02693,0 9.64337,-4.52022 10.24591,-11.15007 h -3.61605 c -0.60263,5.72569 -2.71217,8.13655 -6.62986,8.13655 -3.61634,0 -6.62984,-2.71216 -6.62984,-12.05422 v -1.5067 h 17.4786 v -1.20546 c -0.30133,-10.84846 -3.31504,-15.36905 -10.54754,-15.36905 z"
     style="fill:#000000;fill-rule:evenodd;stroke-width:1.00843"
     id="path1428" />
  <path
     id="path1700"
     style="fill:#000000;fill-rule:evenodd;stroke-width:1.02178"
     d="M 180.2403,74.671794 C 188.68001,47.625033 200.38952,20.619449 220.34512,0 c 4.7614,4.7920532 8.89972,10.146393 12.74152,15.69436 4.39376,-4.955436 7.67368,-10.9738315 12.87444,-15.16313578 0.32697,0.11239596 0.99113,0.34750789 1.3181,0.45990386 4.40398,4.52649222 8.12327,9.65573292 11.80168,14.78517892 3.69895,-5.129446 7.42835,-10.3099802 11.88322,-14.80571673 0.33719,-0.13293377 1.02188,-0.39849479 1.36918,-0.53122421 4.874,4.39355844 8.58317,9.93171694 12.36356,15.26541594 3.86234,-4.965858 7.53053,-10.115637 11.85287,-14.7034361 1.94118,-1.38972506 3.19818,1.4203785 4.51607,2.4522757 16.15457,18.5862064 26.45413,41.4537784 34.21967,64.6277834 8.53187,26.535565 14.29452,54.052035 16.54244,81.834275 -1.02158,-0.0203 -3.05513,0.0205 -4.07671,1e-5 -3.00414,-28.84479 -8.64427,-57.587471 -18.09575,-85.042945 -7.4591,-20.854561 -16.99222,-41.514779 -31.73663,-58.2822141 -3.68853,3.1367671 -6.3046,7.3361871 -9.1757,11.1884051 -2.07412,2.227586 0.50077,4.608133 1.52255,6.641683 17.33953,29.856354 26.44381,63.667002 32.33939,97.457421 1.33843,9.3493 3.06689,18.58617 3.46539,28.03765 -1.40015,-0.0921 -2.5909,0.10228 -3.97051,0 -2.76893,-27.96606 -8.46623,-55.911852 -17.37606,-82.580349 -5.18043,-15.132483 -11.44395,-29.979071 -19.93496,-43.568663 -3.46384,5.589145 -6.73354,11.310918 -9.54364,17.257788 -1.81857,3.290035 1.19569,6.518966 2.10518,9.625284 12.65977,31.695459 19.89408,65.3429 23.11259,99.26594 -1.91523,0 -2.68257,0 -4.18488,0.0675 -2.79968,-26.45393 -8.11727,-54.272874 -16.30194,-79.623478 -2.60554,-7.152369 -4.6489,-14.580721 -8.33774,-21.283505 -3.83168,8.685041 -6.92768,17.676616 -9.74779,26.729907 -1.29767,3.52484 0.59284,7.060204 1.3795,10.462838 4.44475,16.890048 7.76554,34.076308 9.99313,51.395608 0.72526,4.05637 0.97059,8.18458 0.99113,12.30235 -1.37951,-0.0512 -2.79834,-0.0207 -4.16742,-0.0512 -1.01177,-14.3356 -3.46539,-28.5793 -6.27519,-42.65914 -1.6043,-6.73385 -2.67717,-13.610131 -4.93551,-20.160057 -5.86482,20.507257 -8.74614,41.729767 -11.15775,62.859997 -1.22604,-0.0202 -2.45238,-0.0303 -3.6682,-0.0303 -0.0817,-6.3046 0.81763,-12.54779 1.57355,-18.78055 2.30932,-16.70603 5.46663,-33.320299 10.07476,-49.546189 0.41883,-1.655286 1.02189,-3.402328 0.27609,-5.057615 -2.84076,-9.318851 -5.86523,-18.668152 -10.10552,-27.455474 -12.54748,29.314912 -19.24015,60.816338 -22.89823,92.389588 -0.24502,2.62588 -0.37806,5.27229 -0.43937,7.91871 -1.52235,0.2349 -3.06534,0.42925 -4.59801,0.59263 3.10631,-36.50815 10.6674,-73.036843 25.68769,-106.592353 -2.96327,-6.743656 -6.74386,-13.078599 -10.23836,-19.546578 -12.09769,18.616859 -19.70996,39.777852 -25.60584,61.071779 -5.75253,21.202172 -9.39007,42.945682 -11.33156,64.811702 -1.3793,0.0715 -2.74839,0.14305 -4.11778,0.21458 1.4919,-23.50098 5.93676,-46.79749 12.11843,-69.511902 5.18054,-18.371428 12.12834,-36.303898 21.48807,-52.969155 1.40995,-2.544134 3.23905,-4.853462 4.37322,-7.540748 C 227.7326,14.958677 224.12571,10.52435 220.31437,6.4473393 205.5906,22.908138 195.83269,43.180487 188.40433,63.810052 178.8097,91.561843 173.0161,120.57002 170.59438,149.8134 c -1.0319,0.0307 -3.07536,0.10228 -4.10736,0.13294 1.58376,-25.50357 6.56995,-50.772225 13.75328,-75.274546 z M 246.46259,6.4684595 c -4.27104,3.7907075 -7.34725,8.6942675 -10.61695,13.3330535 3.76036,5.834475 6.79549,12.078387 10.10606,18.178525 2.8098,-4.94532 5.38296,-10.024954 8.40774,-14.847762 0.72526,-1.430495 2.30887,-3.0848 1.11359,-4.719752 -2.52391,-4.322034 -5.93477,-8.030743 -9.01044,-11.9440645 z m 25.79999,0.3252944 c -0.29632,0.1123959 -0.86926,0.3383833 -1.16548,0.4609971 -3.49449,3.913219 -6.51859,8.214408 -9.47143,12.546762 3.9545,5.701541 6.65165,12.150157 10.48323,17.913107 3.0349,-6.181676 6.30514,-12.242547 10.10606,-17.984959 -3.09599,-4.465083 -6.1205,-9.073573 -9.95238,-12.9359071 z M 259.04927,23.796832 c -4.1789,6.171356 -7.3452,12.926415 -10.70676,19.547559 4.00548,8.961127 7.35672,18.176135 10.47326,27.474347 2.74869,-7.816731 5.30323,-15.724738 8.76697,-23.265485 0.78697,-2.012706 2.26713,-4.260962 0.89804,-6.376152 -2.86109,-5.936449 -5.93703,-11.791124 -9.43151,-17.380269 z"
     sodipodi:nodetypes="cccccccccccccccccccccccccccccccccccccccccccccccccccccccccccccccccccccccccccc" />
</svg>
